<svg width="32" height="32" viewBox="0 0 32 32" fill="none" xmlns="http://www.w3.org/2000/svg">
<path d="M6.66675 13.3333C8.87589 13.3333 10.6667 11.5424 10.6667 9.33325C10.6667 7.12411 8.87589 5.33325 6.66675 5.33325C4.45761 5.33325 2.66675 7.12411 2.66675 9.33325C2.66675 11.5424 4.45761 13.3333 6.66675 13.3333Z" stroke="#E36B37" stroke-width="1.5"/>
<path d="M10.6666 29.3333C13.6121 29.3333 15.9999 26.9455 15.9999 24C15.9999 21.0544 13.6121 18.6666 10.6666 18.6666C7.72107 18.6666 5.33325 21.0544 5.33325 24C5.33325 26.9455 7.72107 29.3333 10.6666 29.3333Z" stroke="#E36B37" stroke-width="1.5"/>
<path d="M22.6667 16.0001C26.3486 16.0001 29.3333 13.0153 29.3333 9.33341C29.3333 5.65152 26.3486 2.66675 22.6667 2.66675C18.9848 2.66675 16 5.65152 16 9.33341C16 13.0153 18.9848 16.0001 22.6667 16.0001Z" stroke="#E36B37" stroke-width="1.5"/>
</svg>
