<svg width="32" height="32" viewBox="0 0 32 32" fill="none" xmlns="http://www.w3.org/2000/svg">
<path d="M12.9506 10.6328C8.80648 10.6328 5.44702 13.6404 5.44702 17.3505H12.9506V10.6328Z" stroke="#E36B37"/>
<path d="M3.37946 21.2346C5.031 24.4906 8.69482 26.7549 12.9494 26.7549V17.3502H6.49631C4.54454 17.3502 3.56866 17.3502 2.9753 18.3092C2.38194 19.2681 2.71444 19.9236 3.37946 21.2346Z" stroke="#E36B37"/>
<path d="M16.9527 28.9021C22.4575 27.3748 26.4559 22.7805 26.4559 17.3502H12.9495V25.4114C12.9495 27.3762 12.9495 28.3586 13.7503 28.9634C14.5511 29.5684 15.3516 29.3462 16.9527 28.9021Z" stroke="#E36B37"/>
<path d="M28.8544 13.3791C27.2712 8.28593 22.7175 4.30045 16.9695 3.01285C15.3035 2.63965 14.4704 2.45305 13.7099 3.05813C12.9495 3.66321 12.9495 4.64285 12.9495 6.60214V17.3503H25.4054C27.3786 17.3503 28.3651 17.3503 28.9725 16.5313C29.5798 15.7121 29.338 14.9345 28.8544 13.3791Z" stroke="#E36B37"/>
</svg>
