<svg width="52" height="52" viewBox="0 0 52 52" fill="none" xmlns="http://www.w3.org/2000/svg">
<g filter="url(#filter0_d_75_26)">
<rect x="2" y="1" width="48" height="48" rx="10" fill="white"/>
<rect x="2.5" y="1.5" width="47" height="47" rx="9.5" stroke="#E4E7EC"/>
<path d="M28.0913 19.7222H34.0451C34.5172 19.7222 34.7533 19.7222 34.8914 19.8215C35.0118 19.9081 35.0903 20.0414 35.1075 20.1888C35.1272 20.3577 35.0125 20.564 34.7832 20.9768L33.3624 23.5343C33.2792 23.684 33.2376 23.7589 33.2213 23.8381C33.2069 23.9083 33.2069 23.9806 33.2213 24.0508C33.2376 24.13 33.2792 24.2049 33.3624 24.3545L34.7832 26.9121C35.0125 27.3248 35.1272 27.5312 35.1075 27.7001C35.0903 27.8475 35.0118 27.9808 34.8914 28.0674C34.7533 28.1667 34.5172 28.1667 34.0451 28.1667H26.6135C26.0224 28.1667 25.7268 28.1667 25.501 28.0516C25.3024 27.9504 25.1409 27.7889 25.0397 27.5903C24.9247 27.3645 24.9247 27.0689 24.9247 26.4778V23.9444M21.2302 34.5L17.008 17.6111M18.5914 23.9444H26.4024C26.9936 23.9444 27.2892 23.9444 27.515 23.8294C27.7136 23.7282 27.8751 23.5667 27.9763 23.3681C28.0913 23.1423 28.0913 22.8467 28.0913 22.2556V17.1889C28.0913 16.5977 28.0913 16.3021 27.9763 16.0763C27.8751 15.8777 27.7136 15.7162 27.515 15.615C27.2892 15.5 26.9936 15.5 26.4024 15.5H18.6433C17.906 15.5 17.5373 15.5 17.2851 15.6528C17.0641 15.7867 16.8999 15.997 16.8236 16.2439C16.7366 16.5256 16.826 16.8832 17.0048 17.5985L18.5914 23.9444Z" stroke="#344054" stroke-width="2" stroke-linecap="round" stroke-linejoin="round"/>
</g>
<defs>
<filter id="filter0_d_75_26" x="0" y="0" width="52" height="52" filterUnits="userSpaceOnUse" color-interpolation-filters="sRGB">
<feFlood flood-opacity="0" result="BackgroundImageFix"/>
<feColorMatrix in="SourceAlpha" type="matrix" values="0 0 0 0 0 0 0 0 0 0 0 0 0 0 0 0 0 0 127 0" result="hardAlpha"/>
<feOffset dy="1"/>
<feGaussianBlur stdDeviation="1"/>
<feColorMatrix type="matrix" values="0 0 0 0 0.0627451 0 0 0 0 0.0941176 0 0 0 0 0.156863 0 0 0 0.05 0"/>
<feBlend mode="normal" in2="BackgroundImageFix" result="effect1_dropShadow_75_26"/>
<feBlend mode="normal" in="SourceGraphic" in2="effect1_dropShadow_75_26" result="shape"/>
</filter>
</defs>
</svg>
