<svg width="16" height="16" viewBox="0 0 16 16" fill="none" xmlns="http://www.w3.org/2000/svg">
<path d="M6.0956 7.12732L6.23355 6.98939C7.55268 5.6702 9.69148 5.6702 11.0106 6.98939C12.3298 8.30852 12.3298 10.4473 11.0106 11.7665L9.09981 13.6773C7.78068 14.9965 5.64187 14.9965 4.32271 13.6773C3.00356 12.3581 3.00356 10.2193 4.32271 8.90019L4.63228 8.59066" stroke="#6D6D6D" stroke-linecap="round"/>
<path d="M11.3677 7.40925L11.6773 7.09972C12.9965 5.78055 12.9965 3.64178 11.6773 2.32262C10.3581 1.00346 8.21933 1.00346 6.9002 2.32262L4.98936 4.23346C3.67021 5.55261 3.67021 7.69138 4.98936 9.01052C6.30852 10.3297 8.44733 10.3297 9.76647 9.01052L9.9044 8.87258" stroke="#6D6D6D" stroke-linecap="round"/>
</svg>
