<svg width="32" height="32" viewBox="0 0 32 32" fill="none" xmlns="http://www.w3.org/2000/svg">
<circle cx="16" cy="16" r="16" fill="#FFF0EA"/>
<path d="M17.0785 22.2446C16.7894 22.5153 16.4029 22.6666 16.0007 22.6666C15.5985 22.6666 15.2121 22.5153 14.923 22.2446C12.2753 19.7506 8.72717 16.9645 10.4575 12.9197C11.3931 10.7327 13.6389 9.33325 16.0007 9.33325C18.3626 9.33325 20.6084 10.7327 21.544 12.9197C23.2721 16.9595 19.7327 19.7592 17.0785 22.2446Z" stroke="#E36B37" stroke-width="1.5"/>
<path d="M18.3333 15.3333C18.3333 16.622 17.2886 17.6667 16 17.6667C14.7113 17.6667 13.6666 16.622 13.6666 15.3333C13.6666 14.0447 14.7113 13 16 13C17.2886 13 18.3333 14.0447 18.3333 15.3333Z" stroke="#E36B37" stroke-width="1.5"/>
</svg>
