<svg width="32" height="32" viewBox="0 0 32 32" fill="none" xmlns="http://www.w3.org/2000/svg">
<path d="M4 14.6667C4 9.66711 4 7.16728 5.27321 5.41484C5.68441 4.84888 6.18213 4.35116 6.74809 3.93996C8.50053 2.66675 11.0004 2.66675 16 2.66675C20.9996 2.66675 23.4995 2.66675 25.2519 3.93996C25.8179 4.35116 26.3156 4.84888 26.7268 5.41484C28 7.16728 28 9.66711 28 14.6667V17.3334C28 22.333 28 24.8329 26.7268 26.5853C26.3156 27.1513 25.8179 27.649 25.2519 28.0602C23.4995 29.3334 20.9996 29.3334 16 29.3334C11.0004 29.3334 8.50053 29.3334 6.74809 28.0602C6.18213 27.649 5.68441 27.1513 5.27321 26.5853C4 24.8329 4 22.333 4 17.3334V14.6667Z" stroke="#E36B37"/>
<path d="M20 17.3333L18.8572 14.6666M18.8572 14.6666L16.7899 9.84305C16.6577 9.53448 16.3459 9.33325 16 9.33325C15.6541 9.33325 15.3423 9.53448 15.2101 9.84305L13.1429 14.6666M18.8572 14.6666H13.1429M12 17.3333L13.1429 14.6666" stroke="#E36B37" stroke-linecap="round" stroke-linejoin="round"/>
<path d="M10.6667 22.6666H21.3334" stroke="#E36B37" stroke-linecap="round" stroke-linejoin="round"/>
</svg>
