<svg width="16" height="16" viewBox="0 0 16 16" fill="none" xmlns="http://www.w3.org/2000/svg">
<path d="M14 4.33325C14 5.43782 13.1046 6.33325 12 6.33325C10.8954 6.33325 10 5.43782 10 4.33325C10 3.22869 10.8954 2.33325 12 2.33325C13.1046 2.33325 14 3.22869 14 4.33325Z" stroke="white" stroke-width="1.5"/>
<path d="M6 8C6 9.1046 5.10457 10 4 10C2.89543 10 2 9.1046 2 8C2 6.8954 2.89543 6 4 6C5.10457 6 6 6.8954 6 8Z" stroke="white"/>
<path d="M14 11.6667C14 12.7713 13.1046 13.6667 12 13.6667C10.8954 13.6667 10 12.7713 10 11.6667C10 10.5621 10.8954 9.66675 12 9.66675C13.1046 9.66675 14 10.5621 14 11.6667Z" stroke="white" stroke-width="1.5"/>
<path d="M5.81903 7.16639L10.1524 5.16675M5.81903 8.83339L10.1524 10.8331" stroke="white" stroke-width="1.5"/>
</svg>
